<?xml version="1.0" encoding="UTF-8"?><svg id="a" xmlns="http://www.w3.org/2000/svg" xmlns:xlink="http://www.w3.org/1999/xlink" viewBox="0 0 32 32"><defs><style>.e{fill:url(#d);}.f{fill:url(#c);}.g{fill:url(#b);}.h{fill:#e42922;}.i{fill:#2085ce;}.j{fill:#2d2e2c;}</style><linearGradient id="b" x1="3.092" y1="14.421" x2="8.801" y2="4.533" gradientTransform="matrix(1, 0, 0, 1, 0, 0)" gradientUnits="userSpaceOnUse"><stop offset="0" stop-color="#2085ce"/><stop offset="1" stop-color="#58b64a"/></linearGradient><linearGradient id="c" x1="3.087" y1="19.115" x2="12.882" y2="28.911" gradientTransform="matrix(1, 0, 0, 1, 0, 0)" gradientUnits="userSpaceOnUse"><stop offset="0" stop-color="#2085ce"/><stop offset="1" stop-color="#e42922"/></linearGradient><linearGradient id="d" x1="17.891" y1="28.728" x2="27.484" y2="23.189" gradientTransform="matrix(1, 0, 0, 1, 0, 0)" gradientUnits="userSpaceOnUse"><stop offset=".01" stop-color="#e42922"/><stop offset="1" stop-color="#dc9f1c"/></linearGradient></defs><rect class="i" x="4" y="15.006" width="1.6" height="1.998"/><polyline class="h" points="16.999 26.4 16.999 28 15.002 28 15.002 26.4"/><g><path class="g" d="M11,4v1.6h-3c-1.33,0-2.4,1.07-2.4,2.4v8h-1.6V8c0-2.21,1.79-4,4-4h3Z"/><path class="f" d="M16,26.4v1.6H8c-2.21,0-4-1.79-4-4v-8h1.6v8c0,1.33,1.07,2.4,2.4,2.4h8Z"/><path class="e" d="M28,21v3c0,2.21-1.79,4-4,4h-8v-1.6h8c1.33,0,2.4-1.07,2.4-2.4v-3h1.6Z"/></g><path class="j" d="M12.291,20.405c-.186,0-.365-.077-.495-.22-.175-.193-.224-.462-.126-.704l1.4-3.501c.069-.173,.171-.327,.302-.458L24.635,4.258c.515-.517,1.414-.516,1.93,0l1.188,1.188c.523,.523,.53,1.381,.016,1.913l-11.252,11.627c-.162,.167-.365,.291-.588,.358l-3.441,1.032c-.065,.02-.131,.029-.196,.029ZM25.6,4.858c-.097,0-.188,.038-.257,.107l-11.264,11.263c-.035,.035-.062,.077-.081,.123l-1.148,2.873,2.791-.837c.06-.018,.114-.051,.157-.095L27.049,6.663c.138-.142,.136-.371-.004-.511l-1.188-1.188c-.069-.069-.16-.107-.258-.107Z"/><rect class="j" x="23.7" y="6.586" width=".599" height="2.828" transform="translate(1.373 19.314) rotate(-45)"/></svg>